<svg xmlns="http://www.w3.org/2000/svg" xmlns:xlink="http://www.w3.org/1999/xlink" width="50" zoomAndPan="magnify" viewBox="0 0 375 374.999991" height="500" preserveAspectRatio="xMidYMid meet" version="1.0"><defs><filter x="0%" y="0%" width="100%" height="100%" id="154a9c3c2d"><feColorMatrix values="0 0 0 0 1 0 0 0 0 1 0 0 0 0 1 0 0 0 1 0" color-interpolation-filters="sRGB"/></filter><g/><clipPath id="d8899e78c2"><path d="M 134.3125 87.753906 L 240.804688 87.753906 L 240.804688 181.066406 L 134.3125 181.066406 Z M 134.3125 87.753906 " clip-rule="nonzero"/></clipPath><clipPath id="abbec1fb80"><path d="M 134.3125 115.28125 C 134.3125 144.921875 187.5 181.066406 187.5 181.066406 C 187.5 181.066406 240.457031 144.664062 240.6875 115.28125 C 240.6875 100.113281 228.328125 87.753906 213.160156 87.753906 C 201.5 87.753906 191.457031 95.21875 187.5 105.476562 C 183.542969 95.21875 173.5 87.753906 161.839844 87.753906 C 146.671875 87.753906 134.3125 100.113281 134.3125 115.28125 " clip-rule="nonzero"/></clipPath><mask id="18365e3e17"><g filter="url(#154a9c3c2d)"><rect x="-37.5" width="450" fill="#000000" y="-37.499999" height="449.999989" fill-opacity="0.82"/></g></mask><clipPath id="7da6aeb16e"><path d="M 1.167969 0.804688 L 85.921875 0.804688 L 85.921875 75.066406 L 1.167969 75.066406 Z M 1.167969 0.804688 " clip-rule="nonzero"/></clipPath><clipPath id="7bbbfb0171"><path d="M 1.167969 22.714844 C 1.167969 46.300781 43.5 75.066406 43.5 75.066406 C 43.5 75.066406 85.644531 46.097656 85.832031 22.714844 C 85.832031 10.640625 75.992188 0.804688 63.921875 0.804688 C 54.640625 0.804688 46.648438 6.746094 43.5 14.90625 C 40.351562 6.746094 32.359375 0.804688 23.078125 0.804688 C 11.007812 0.804688 1.167969 10.640625 1.167969 22.714844 " clip-rule="nonzero"/></clipPath><clipPath id="aad5bd2362"><rect x="0" width="87" y="0" height="76"/></clipPath></defs><path fill="#1b9ce4" d="M 108.734375 122.21875 C 108.734375 80.53125 142.527344 46.738281 184.214844 46.738281 C 203.273438 46.738281 220.679688 53.804688 233.964844 65.457031 C 219.515625 43.054688 194.339844 28.222656 165.699219 28.222656 C 120.867188 28.222656 84.523438 64.570312 84.523438 109.398438 C 84.523438 148.351562 111.957031 180.886719 148.558594 188.757812 C 124.851562 176.027344 108.734375 151.007812 108.734375 122.21875 " fill-opacity="1" fill-rule="nonzero"/><path fill="#183e9f" d="M 262.175781 8.484375 C 260.683594 7.925781 260.023438 9.480469 259.769531 11.570312 C 259.269531 15.65625 260.90625 19.699219 264 22.410156 C 296.363281 50.769531 290.082031 120.25 268.933594 116.105469 C 255.046875 113.390625 269.835938 72.109375 258.257812 70.703125 C 250.566406 69.769531 243.734375 88.902344 244.222656 114.132812 C 244.503906 128.566406 249.140625 140.480469 253.210938 150.820312 C 259.113281 165.796875 253.691406 182.945312 240.121094 191.601562 C 196.945312 219.160156 138.957031 214.082031 101.242188 176.363281 C 81.316406 156.4375 70.507812 130.851562 68.800781 104.78125 C 60.472656 143.386719 71.34375 185.304688 101.421875 215.257812 C 139.335938 253.015625 199.878906 260.875 246.214844 234.117188 C 290.199219 208.714844 308.597656 156.445312 311.214844 107.847656 C 314.542969 46.035156 279.066406 14.84375 262.175781 8.484375 Z M 256.113281 42.308594 C 272.925781 57.082031 279.28125 82.960938 278.535156 103.804688 C 281.171875 97.339844 282.605469 87.875 282.277344 77.742188 C 281.839844 64.199219 278.617188 51.511719 273.222656 41.230469 C 266.25 34.519531 259.378906 30.277344 254.234375 28.339844 C 252.710938 27.765625 252.054688 29.40625 251.808594 31.570312 C 251.359375 35.632812 253.042969 39.609375 256.113281 42.308594 " fill-opacity="1" fill-rule="nonzero"/><g clip-path="url(#d8899e78c2)"><g clip-path="url(#abbec1fb80)"><path fill="#183e9f" d="M 134.3125 87.753906 L 240.59375 87.753906 L 240.59375 181.066406 L 134.3125 181.066406 Z M 134.3125 87.753906 " fill-opacity="1" fill-rule="nonzero"/></g></g><g mask="url(#18365e3e17)"><g transform="matrix(1, 0, 0, 1, 144, 106)"><g clip-path="url(#aad5bd2362)"><g clip-path="url(#7da6aeb16e)"><g clip-path="url(#7bbbfb0171)"><path fill="#54afe6" d="M 1.167969 0.804688 L 85.753906 0.804688 L 85.753906 75.066406 L 1.167969 75.066406 Z M 1.167969 0.804688 " fill-opacity="1" fill-rule="nonzero"/></g></g></g></g></g><g fill="#ffffff" fill-opacity="1"><g transform="translate(32.109383, 353.95112)"><g><path d="M 44.203125 -0.0625 L 36.609375 -0.0625 L 36.609375 -27.953125 C 36.609375 -28.472656 36.703125 -29.820312 36.890625 -32 C 36.773438 -31.695312 36.632812 -31.273438 36.46875 -30.734375 C 36.300781 -30.191406 36.140625 -29.691406 35.984375 -29.234375 C 35.835938 -28.785156 35.691406 -28.359375 35.546875 -27.953125 L 25.46875 0 L 21.3125 0 L 10.96875 -27.953125 C 10.8125 -28.359375 10.660156 -28.785156 10.515625 -29.234375 C 10.367188 -29.691406 10.207031 -30.191406 10.03125 -30.734375 C 9.863281 -31.273438 9.722656 -31.695312 9.609375 -32 C 9.609375 -31.65625 9.65625 -31.015625 9.75 -30.078125 C 9.84375 -29.140625 9.890625 -28.429688 9.890625 -27.953125 L 9.890625 -0.0625 L 3.765625 -0.0625 L 3.765625 -37.734375 C 3.765625 -37.773438 3.695312 -38.054688 3.5625 -38.578125 C 3.4375 -39.097656 3.304688 -39.640625 3.171875 -40.203125 C 3.046875 -40.765625 2.984375 -41.082031 2.984375 -41.15625 L 13.78125 -41.15625 L 22.546875 -17.546875 C 22.960938 -16.421875 23.507812 -14.148438 24.1875 -10.734375 C 24.257812 -11.003906 24.453125 -11.953125 24.765625 -13.578125 C 25.085938 -15.210938 25.398438 -16.457031 25.703125 -17.3125 L 34.296875 -41.15625 L 44.203125 -41.15625 Z M 44.203125 -0.0625 "/></g></g></g><g fill="#ffffff" fill-opacity="1"><g transform="translate(79.227288, 353.95112)"><g><path d="M 26.203125 -16.53125 C 26.203125 -14.28125 25.25 -13.15625 23.34375 -13.15625 L 8.609375 -13.15625 C 8.609375 -10.757812 9.242188 -8.613281 10.515625 -6.71875 C 11.785156 -4.820312 13.566406 -3.875 15.859375 -3.875 C 17.015625 -3.875 18.222656 -4.15625 19.484375 -4.71875 C 20.742188 -5.28125 21.800781 -5.992188 22.65625 -6.859375 L 25.53125 -2.359375 C 24.363281 -1.390625 22.832031 -0.648438 20.9375 -0.140625 C 19.050781 0.367188 17.242188 0.625 15.515625 0.625 C 11.171875 0.625 7.742188 -0.675781 5.234375 -3.28125 C 2.722656 -5.894531 1.46875 -9.394531 1.46875 -13.78125 C 1.46875 -17.9375 2.632812 -21.46875 4.96875 -24.375 C 7.3125 -27.28125 10.507812 -28.734375 14.5625 -28.734375 C 18.238281 -28.734375 21.097656 -27.625 23.140625 -25.40625 C 25.179688 -23.195312 26.203125 -20.238281 26.203125 -16.53125 Z M 19.171875 -18.84375 C 19.171875 -20.375 18.773438 -21.632812 17.984375 -22.625 C 17.203125 -23.625 16.082031 -24.125 14.625 -24.125 C 13.125 -24.125 11.789062 -23.429688 10.625 -22.046875 C 9.46875 -20.660156 8.847656 -19.175781 8.765625 -17.59375 L 18.21875 -17.59375 C 18.851562 -17.59375 19.171875 -18.007812 19.171875 -18.84375 Z M 19.171875 -18.84375 "/></g></g></g><g fill="#ffffff" fill-opacity="1"><g transform="translate(107.003235, 353.95112)"><g><path d="M 28.953125 -0.171875 L 22.15625 0.5 C 21.851562 -0.320312 21.570312 -1.445312 21.3125 -2.875 C 20.5625 -1.78125 19.445312 -0.914062 17.96875 -0.28125 C 16.488281 0.351562 15.015625 0.671875 13.546875 0.671875 C 9.765625 0.671875 6.820312 -0.757812 4.71875 -3.625 C 2.625 -6.488281 1.578125 -9.875 1.578125 -13.78125 C 1.578125 -18.050781 2.707031 -21.59375 4.96875 -24.40625 C 7.238281 -27.21875 10.457031 -28.625 14.625 -28.625 C 17.320312 -28.625 19.398438 -28.023438 20.859375 -26.828125 C 20.828125 -27.835938 20.8125 -28.976562 20.8125 -30.25 L 20.8125 -40.15625 L 19.96875 -43.1875 L 27.5625 -43.1875 L 27.5625 -7.984375 C 27.5625 -4.492188 28.023438 -1.890625 28.953125 -0.171875 Z M 20.8125 -7.25 L 20.8125 -16.421875 C 20.8125 -18.554688 20.378906 -20.328125 19.515625 -21.734375 C 18.648438 -23.140625 17.222656 -23.84375 15.234375 -23.84375 C 13.703125 -23.84375 12.4375 -23.269531 11.4375 -22.125 C 10.445312 -20.976562 9.78125 -19.722656 9.4375 -18.359375 C 9.101562 -16.992188 8.9375 -15.5625 8.9375 -14.0625 C 8.9375 -11.582031 9.460938 -9.335938 10.515625 -7.328125 C 11.566406 -5.328125 13.21875 -4.328125 15.46875 -4.328125 C 16.476562 -4.328125 17.476562 -4.597656 18.46875 -5.140625 C 19.46875 -5.679688 20.25 -6.382812 20.8125 -7.25 Z M 20.8125 -7.25 "/></g></g></g><g fill="#ffffff" fill-opacity="1"><g transform="translate(138.377685, 353.95112)"><g><path d="M 10.40625 0 L 3.65625 0 L 3.65625 -24.90625 C 3.65625 -24.945312 3.609375 -25.191406 3.515625 -25.640625 C 3.421875 -26.085938 3.316406 -26.570312 3.203125 -27.09375 C 3.085938 -27.625 3.03125 -27.910156 3.03125 -27.953125 L 10.40625 -27.953125 Z M 10.0625 -41.21875 C 10.925781 -40.351562 11.359375 -39.320312 11.359375 -38.125 C 11.359375 -36.925781 10.9375 -35.90625 10.09375 -35.0625 C 9.25 -34.21875 8.226562 -33.796875 7.03125 -33.796875 C 5.832031 -33.796875 4.8125 -34.21875 3.96875 -35.0625 C 3.125 -35.90625 2.703125 -36.925781 2.703125 -38.125 C 2.703125 -39.320312 3.125 -40.351562 3.96875 -41.21875 C 4.8125 -42.082031 5.832031 -42.515625 7.03125 -42.515625 C 8.226562 -42.515625 9.238281 -42.082031 10.0625 -41.21875 Z M 10.0625 -41.21875 "/></g></g></g><g fill="#ffffff" fill-opacity="1"><g transform="translate(152.490563, 353.95112)"><g><path d="M 24.859375 -1.96875 C 22.984375 -1.03125 21.347656 -0.359375 19.953125 0.046875 C 18.566406 0.460938 16.957031 0.671875 15.125 0.671875 C 10.78125 0.671875 7.414062 -0.664062 5.03125 -3.34375 C 2.65625 -6.019531 1.46875 -9.570312 1.46875 -14 C 1.46875 -18.382812 2.785156 -21.925781 5.421875 -24.625 C 8.066406 -27.320312 11.566406 -28.671875 15.921875 -28.671875 C 17.304688 -28.671875 18.785156 -28.425781 20.359375 -27.9375 C 21.929688 -27.457031 23.28125 -26.804688 24.40625 -25.984375 L 21.03125 -21.703125 C 19.082031 -23.171875 17.171875 -23.90625 15.296875 -23.90625 C 13.117188 -23.90625 11.503906 -22.875 10.453125 -20.8125 C 9.410156 -18.75 8.890625 -16.515625 8.890625 -14.109375 C 8.890625 -12.421875 9.101562 -10.851562 9.53125 -9.40625 C 9.957031 -7.96875 10.734375 -6.710938 11.859375 -5.640625 C 12.984375 -4.578125 14.410156 -4.046875 16.140625 -4.046875 C 17.859375 -4.046875 19.804688 -4.960938 21.984375 -6.796875 Z M 24.859375 -1.96875 "/></g></g></g><g fill="#ffffff" fill-opacity="1"><g transform="translate(177.792537, 353.95112)"><g><path d="M 29.015625 -1.0625 C 28.679688 -0.988281 28.164062 -0.835938 27.46875 -0.609375 C 26.78125 -0.390625 26.207031 -0.210938 25.75 -0.078125 C 25.300781 0.046875 24.765625 0.164062 24.140625 0.28125 C 23.523438 0.394531 22.976562 0.453125 22.5 0.453125 C 21.375 0.453125 20.414062 0.109375 19.625 -0.578125 C 18.832031 -1.273438 18.304688 -2.1875 18.046875 -3.3125 C 16.171875 -0.6875 13.359375 0.625 9.609375 0.625 C 7.328125 0.625 5.4375 -0.0078125 3.9375 -1.28125 C 2.4375 -2.5625 1.6875 -4.328125 1.6875 -6.578125 C 1.6875 -8.523438 2.15625 -10.171875 3.09375 -11.515625 C 4.03125 -12.867188 5.300781 -13.875 6.90625 -14.53125 C 8.519531 -15.1875 10.132812 -15.65625 11.75 -15.9375 C 13.363281 -16.21875 15.085938 -16.359375 16.921875 -16.359375 L 16.921875 -20.015625 C 16.921875 -21.484375 16.601562 -22.503906 15.96875 -23.078125 C 15.332031 -23.660156 14.300781 -23.953125 12.875 -23.953125 C 10.882812 -23.953125 8.484375 -22.863281 5.671875 -20.6875 L 2.921875 -25.140625 C 6.335938 -27.460938 10.125 -28.625 14.28125 -28.625 C 17.28125 -28.625 19.59375 -27.851562 21.21875 -26.3125 C 22.851562 -24.78125 23.671875 -22.515625 23.671875 -19.515625 L 23.671875 -7.3125 C 23.671875 -5.4375 24.125 -4.5 25.03125 -4.5 C 25.320312 -4.5 26.257812 -4.722656 27.84375 -5.171875 Z M 16.921875 -10.453125 L 16.921875 -11.75 C 11.453125 -11.75 8.71875 -10.25 8.71875 -7.25 C 8.71875 -6.425781 9.046875 -5.769531 9.703125 -5.28125 C 10.359375 -4.800781 11.117188 -4.5625 11.984375 -4.5625 C 13.441406 -4.5625 14.628906 -5.164062 15.546875 -6.375 C 16.460938 -7.59375 16.921875 -8.953125 16.921875 -10.453125 Z M 16.921875 -10.453125 "/></g></g></g><g fill="#ffffff" fill-opacity="1"><g transform="translate(205.568483, 353.95112)"><g><path d="M 10.40625 0 L 3.546875 0 L 3.546875 -40.203125 C 3.546875 -40.242188 3.5 -40.488281 3.40625 -40.9375 C 3.3125 -41.382812 3.207031 -41.867188 3.09375 -42.390625 C 2.976562 -42.921875 2.921875 -43.207031 2.921875 -43.25 L 10.40625 -43.25 Z M 10.40625 0 "/></g></g></g><g fill="#ffffff" fill-opacity="1"><g transform="translate(219.681361, 353.95112)"><g/></g></g><g fill="#ffffff" fill-opacity="1"><g transform="translate(232.613483, 353.95112)"><g><path d="M 34.421875 -3.484375 C 32.054688 -2.023438 29.851562 -0.96875 27.8125 -0.3125 C 25.769531 0.34375 23.4375 0.671875 20.8125 0.671875 C 14.46875 0.671875 9.597656 -1.3125 6.203125 -5.28125 C 2.816406 -9.257812 1.125 -14.453125 1.125 -20.859375 C 1.125 -26.972656 2.90625 -32.015625 6.46875 -35.984375 C 10.03125 -39.960938 14.828125 -41.953125 20.859375 -41.953125 C 23.179688 -41.953125 25.617188 -41.613281 28.171875 -40.9375 C 30.722656 -40.257812 32.726562 -39.265625 34.1875 -37.953125 L 30.140625 -32.78125 C 29.128906 -33.90625 27.78125 -34.804688 26.09375 -35.484375 C 24.40625 -36.160156 22.753906 -36.5 21.140625 -36.5 C 18.367188 -36.5 16.070312 -35.707031 14.25 -34.125 C 12.4375 -32.550781 11.191406 -30.660156 10.515625 -28.453125 C 9.835938 -26.242188 9.5 -23.769531 9.5 -21.03125 C 9.5 -19.226562 9.734375 -17.398438 10.203125 -15.546875 C 10.671875 -13.691406 11.351562 -11.929688 12.25 -10.265625 C 13.15625 -8.597656 14.394531 -7.238281 15.96875 -6.1875 C 17.539062 -5.132812 19.300781 -4.609375 21.25 -4.609375 C 24.738281 -4.609375 27.945312 -6.015625 30.875 -8.828125 Z M 34.421875 -3.484375 "/></g></g></g><g fill="#ffffff" fill-opacity="1"><g transform="translate(267.698898, 353.95112)"><g><path d="M 29.015625 -1.0625 C 28.679688 -0.988281 28.164062 -0.835938 27.46875 -0.609375 C 26.78125 -0.390625 26.207031 -0.210938 25.75 -0.078125 C 25.300781 0.046875 24.765625 0.164062 24.140625 0.28125 C 23.523438 0.394531 22.976562 0.453125 22.5 0.453125 C 21.375 0.453125 20.414062 0.109375 19.625 -0.578125 C 18.832031 -1.273438 18.304688 -2.1875 18.046875 -3.3125 C 16.171875 -0.6875 13.359375 0.625 9.609375 0.625 C 7.328125 0.625 5.4375 -0.0078125 3.9375 -1.28125 C 2.4375 -2.5625 1.6875 -4.328125 1.6875 -6.578125 C 1.6875 -8.523438 2.15625 -10.171875 3.09375 -11.515625 C 4.03125 -12.867188 5.300781 -13.875 6.90625 -14.53125 C 8.519531 -15.1875 10.132812 -15.65625 11.75 -15.9375 C 13.363281 -16.21875 15.085938 -16.359375 16.921875 -16.359375 L 16.921875 -20.015625 C 16.921875 -21.484375 16.601562 -22.503906 15.96875 -23.078125 C 15.332031 -23.660156 14.300781 -23.953125 12.875 -23.953125 C 10.882812 -23.953125 8.484375 -22.863281 5.671875 -20.6875 L 2.921875 -25.140625 C 6.335938 -27.460938 10.125 -28.625 14.28125 -28.625 C 17.28125 -28.625 19.59375 -27.851562 21.21875 -26.3125 C 22.851562 -24.78125 23.671875 -22.515625 23.671875 -19.515625 L 23.671875 -7.3125 C 23.671875 -5.4375 24.125 -4.5 25.03125 -4.5 C 25.320312 -4.5 26.257812 -4.722656 27.84375 -5.171875 Z M 16.921875 -10.453125 L 16.921875 -11.75 C 11.453125 -11.75 8.71875 -10.25 8.71875 -7.25 C 8.71875 -6.425781 9.046875 -5.769531 9.703125 -5.28125 C 10.359375 -4.800781 11.117188 -4.5625 11.984375 -4.5625 C 13.441406 -4.5625 14.628906 -5.164062 15.546875 -6.375 C 16.460938 -7.59375 16.921875 -8.953125 16.921875 -10.453125 Z M 16.921875 -10.453125 "/></g></g></g><g fill="#ffffff" fill-opacity="1"><g transform="translate(295.474856, 353.95112)"><g><path d="M 19.796875 -28.515625 L 18.671875 -21.8125 L 18.4375 -21.8125 C 16.789062 -21.8125 15.359375 -21.351562 14.140625 -20.4375 C 12.921875 -19.519531 11.734375 -18.253906 10.578125 -16.640625 L 10.578125 0 L 3.828125 0 L 3.828125 -20.40625 C 3.828125 -23.820312 3.226562 -26.335938 2.03125 -27.953125 L 9.171875 -28.515625 C 9.992188 -26.640625 10.441406 -24.671875 10.515625 -22.609375 C 11.492188 -24.253906 12.832031 -25.648438 14.53125 -26.796875 C 16.238281 -27.941406 17.992188 -28.515625 19.796875 -28.515625 Z M 19.796875 -28.515625 "/></g></g></g><g fill="#ffffff" fill-opacity="1"><g transform="translate(315.09795, 353.95112)"><g><path d="M 26.203125 -16.53125 C 26.203125 -14.28125 25.25 -13.15625 23.34375 -13.15625 L 8.609375 -13.15625 C 8.609375 -10.757812 9.242188 -8.613281 10.515625 -6.71875 C 11.785156 -4.820312 13.566406 -3.875 15.859375 -3.875 C 17.015625 -3.875 18.222656 -4.15625 19.484375 -4.71875 C 20.742188 -5.28125 21.800781 -5.992188 22.65625 -6.859375 L 25.53125 -2.359375 C 24.363281 -1.390625 22.832031 -0.648438 20.9375 -0.140625 C 19.050781 0.367188 17.242188 0.625 15.515625 0.625 C 11.171875 0.625 7.742188 -0.675781 5.234375 -3.28125 C 2.722656 -5.894531 1.46875 -9.394531 1.46875 -13.78125 C 1.46875 -17.9375 2.632812 -21.46875 4.96875 -24.375 C 7.3125 -27.28125 10.507812 -28.734375 14.5625 -28.734375 C 18.238281 -28.734375 21.097656 -27.625 23.140625 -25.40625 C 25.179688 -23.195312 26.203125 -20.238281 26.203125 -16.53125 Z M 19.171875 -18.84375 C 19.171875 -20.375 18.773438 -21.632812 17.984375 -22.625 C 17.203125 -23.625 16.082031 -24.125 14.625 -24.125 C 13.125 -24.125 11.789062 -23.429688 10.625 -22.046875 C 9.46875 -20.660156 8.847656 -19.175781 8.765625 -17.59375 L 18.21875 -17.59375 C 18.851562 -17.59375 19.171875 -18.007812 19.171875 -18.84375 Z M 19.171875 -18.84375 "/></g></g></g><g fill="#ffffff" fill-opacity="1"><g transform="translate(111.291223, 294.484057)"><g><path d="M 15.109375 0 L 12.859375 0 L 12.859375 -8.28125 L 4.34375 -8.28125 L 4.34375 0 L 2.09375 0 L 2.09375 -15.953125 C 2.09375 -15.960938 2.0625 -16.085938 2 -16.328125 C 1.945312 -16.578125 1.894531 -16.832031 1.84375 -17.09375 C 1.789062 -17.351562 1.765625 -17.503906 1.765625 -17.546875 L 4.34375 -17.546875 L 4.34375 -9.921875 L 12.859375 -9.921875 L 12.859375 -17.546875 L 15.109375 -17.546875 Z M 15.109375 0 "/></g></g></g><g fill="#ffffff" fill-opacity="1"><g transform="translate(128.494155, 294.484057)"><g><path d="M 12.265625 0 L 2.078125 0 L 2.078125 -15.953125 C 2.078125 -15.960938 2.046875 -16.085938 1.984375 -16.328125 C 1.929688 -16.578125 1.875 -16.832031 1.8125 -17.09375 C 1.757812 -17.351562 1.734375 -17.503906 1.734375 -17.546875 L 12.265625 -17.546875 L 12.265625 -15.875 L 4.3125 -15.875 L 4.3125 -9.828125 L 10.484375 -9.828125 L 10.484375 -8.1875 L 4.3125 -8.1875 L 4.3125 -1.65625 L 12.265625 -1.65625 Z M 12.265625 0 "/></g></g></g><g fill="#ffffff" fill-opacity="1"><g transform="translate(141.721627, 294.484057)"><g><path d="M 14.796875 0 L 12.3125 0 L 10.28125 -6.03125 L 4.5 -6.03125 L 2.453125 0 L 0.4375 0 L 6.53125 -17.546875 L 8.71875 -17.546875 Z M 9.734375 -7.65625 L 7.421875 -14.59375 L 5.0625 -7.65625 Z M 9.734375 -7.65625 "/></g></g></g><g fill="#ffffff" fill-opacity="1"><g transform="translate(156.924784, 294.484057)"><g><path d="M 11.6875 0 L 2.078125 0 L 2.078125 -15.953125 C 2.078125 -15.960938 2.046875 -16.085938 1.984375 -16.328125 C 1.929688 -16.578125 1.875 -16.832031 1.8125 -17.09375 C 1.757812 -17.351562 1.734375 -17.503906 1.734375 -17.546875 L 4.3125 -17.546875 L 4.3125 -1.65625 L 11.6875 -1.65625 Z M 11.6875 0 "/></g></g></g><g fill="#ffffff" fill-opacity="1"><g transform="translate(169.308974, 294.484057)"><g><path d="M 8.078125 0 L 5.78125 0 L 5.78125 -15.875 L 0.578125 -15.875 L 0.578125 -17.546875 L 13.34375 -17.546875 L 13.34375 -15.875 L 8.078125 -15.875 Z M 8.078125 0 "/></g></g></g><g fill="#ffffff" fill-opacity="1"><g transform="translate(183.235165, 294.484057)"><g><path d="M 15.109375 0 L 12.859375 0 L 12.859375 -8.28125 L 4.34375 -8.28125 L 4.34375 0 L 2.09375 0 L 2.09375 -15.953125 C 2.09375 -15.960938 2.0625 -16.085938 2 -16.328125 C 1.945312 -16.578125 1.894531 -16.832031 1.84375 -17.09375 C 1.789062 -17.351562 1.765625 -17.503906 1.765625 -17.546875 L 4.34375 -17.546875 L 4.34375 -9.921875 L 12.859375 -9.921875 L 12.859375 -17.546875 L 15.109375 -17.546875 Z M 15.109375 0 "/></g></g></g><g fill="#ffffff" fill-opacity="1"><g transform="translate(200.438098, 294.484057)"><g/></g></g><g fill="#ffffff" fill-opacity="1"><g transform="translate(205.97966, 294.484057)"><g><path d="M 13.59375 -3.015625 L 14.625 -1.390625 C 13.976562 -0.867188 13.15625 -0.457031 12.15625 -0.15625 C 11.15625 0.144531 10.195312 0.296875 9.28125 0.296875 C 6.738281 0.296875 4.738281 -0.578125 3.28125 -2.328125 C 1.832031 -4.085938 1.109375 -6.25 1.109375 -8.8125 C 1.109375 -11.414062 1.835938 -13.5625 3.296875 -15.25 C 4.765625 -16.9375 6.773438 -17.78125 9.328125 -17.78125 C 10.273438 -17.78125 11.25 -17.613281 12.25 -17.28125 C 13.25 -16.957031 14.023438 -16.488281 14.578125 -15.875 L 13.328125 -14.484375 C 12.878906 -14.984375 12.269531 -15.375 11.5 -15.65625 C 10.726562 -15.945312 9.988281 -16.09375 9.28125 -16.09375 C 8.28125 -16.09375 7.398438 -15.878906 6.640625 -15.453125 C 5.890625 -15.023438 5.296875 -14.445312 4.859375 -13.71875 C 4.429688 -12.988281 4.109375 -12.203125 3.890625 -11.359375 C 3.671875 -10.515625 3.5625 -9.617188 3.5625 -8.671875 C 3.5625 -7.710938 3.671875 -6.8125 3.890625 -5.96875 C 4.109375 -5.132812 4.4375 -4.378906 4.875 -3.703125 C 5.320312 -3.035156 5.925781 -2.503906 6.6875 -2.109375 C 7.445312 -1.710938 8.328125 -1.515625 9.328125 -1.515625 C 10.046875 -1.515625 10.800781 -1.648438 11.59375 -1.921875 C 12.394531 -2.203125 13.0625 -2.566406 13.59375 -3.015625 Z M 13.59375 -3.015625 "/></g></g></g><g fill="#ffffff" fill-opacity="1"><g transform="translate(221.014165, 294.484057)"><g><path d="M 14.796875 0 L 12.3125 0 L 10.28125 -6.03125 L 4.5 -6.03125 L 2.453125 0 L 0.4375 0 L 6.53125 -17.546875 L 8.71875 -17.546875 Z M 9.734375 -7.65625 L 7.421875 -14.59375 L 5.0625 -7.65625 Z M 9.734375 -7.65625 "/></g></g></g><g fill="#ffffff" fill-opacity="1"><g transform="translate(236.217322, 294.484057)"><g><path d="M 14.4375 0 L 11.828125 0 L 7.296875 -7.921875 C 6.929688 -7.890625 6.332031 -7.875 5.5 -7.875 L 4.28125 -7.875 L 4.28125 0 L 2.046875 0 L 2.046875 -15.953125 C 2.046875 -15.960938 2.015625 -16.085938 1.953125 -16.328125 C 1.898438 -16.578125 1.84375 -16.832031 1.78125 -17.09375 C 1.726562 -17.351562 1.703125 -17.503906 1.703125 -17.546875 L 6.9375 -17.546875 C 10.882812 -17.546875 12.859375 -15.929688 12.859375 -12.703125 C 12.859375 -11.734375 12.535156 -10.832031 11.890625 -10 C 11.242188 -9.175781 10.453125 -8.625 9.515625 -8.34375 Z M 4.28125 -9.515625 L 6.21875 -9.515625 C 7.550781 -9.515625 8.601562 -9.757812 9.375 -10.25 C 10.144531 -10.738281 10.53125 -11.601562 10.53125 -12.84375 C 10.53125 -13.820312 10.179688 -14.570312 9.484375 -15.09375 C 8.796875 -15.613281 7.945312 -15.875 6.9375 -15.875 L 4.28125 -15.875 Z M 4.28125 -9.515625 "/></g></g></g><g fill="#ffffff" fill-opacity="1"><g transform="translate(250.456725, 294.484057)"><g><path d="M 12.265625 0 L 2.078125 0 L 2.078125 -15.953125 C 2.078125 -15.960938 2.046875 -16.085938 1.984375 -16.328125 C 1.929688 -16.578125 1.875 -16.832031 1.8125 -17.09375 C 1.757812 -17.351562 1.734375 -17.503906 1.734375 -17.546875 L 12.265625 -17.546875 L 12.265625 -15.875 L 4.3125 -15.875 L 4.3125 -9.828125 L 10.484375 -9.828125 L 10.484375 -8.1875 L 4.3125 -8.1875 L 4.3125 -1.65625 L 12.265625 -1.65625 Z M 12.265625 0 "/></g></g></g></svg>